<svg xmlns="http://www.w3.org/2000/svg" enable-background="new 0 0 512 512" viewBox="0 0 512 512" id="doc-file"><path fill="#f4f4f3" d="M414.2,121.5v317.6c0,7.4-6,13.4-13.4,13.4H111.2c-7.4,0-13.4-6-13.4-13.4V72.9c0-7.4,6-13.4,13.4-13.4h237.6
			L414.2,121.5z"></path><path fill="#edeceb" d="M414.2,121.5h-52.1c-7.4,0-13.4-6-13.4-13.4V59.5L414.2,121.5z"></path><rect width="316.5" height="103.3" x="97.8" y="307.9" fill="#528bc9"></rect><path fill="#f4f4f3" d="M157.8 323.8h18.9c4.9 0 9.1.5 12.6 1.4 3.5.9 6.7 2.6 9.6 5.1 7.5 6.4 11.2 16.1 11.2 29.1 0 4.3-.4 8.2-1.1 11.8-.8 3.5-1.9 6.7-3.5 9.6-1.6 2.8-3.6 5.4-6 7.6-1.9 1.7-4 3.1-6.3 4.2-2.3 1-4.7 1.8-7.3 2.2-2.6.4-5.6.6-8.9.6h-18.9c-2.6 0-4.6-.4-6-1.2-1.3-.8-2.2-1.9-2.6-3.4-.4-1.4-.6-3.3-.6-5.6v-52.5c0-3.1.7-5.4 2.1-6.8C152.4 324.5 154.7 323.8 157.8 323.8zM163.4 335.2v48.6h11c2.4 0 4.3-.1 5.7-.2 1.4-.1 2.8-.5 4.2-1 1.5-.5 2.7-1.3 3.8-2.2 4.8-4.1 7.3-11.2 7.3-21.2 0-7.1-1.1-12.4-3.2-15.9s-4.8-5.8-7.9-6.7c-3.1-1-6.9-1.4-11.3-1.4H163.4zM254.4 322.6c7.4 0 13.8 1.5 19.1 4.5 5.3 3 9.4 7.3 12.1 12.8 2.7 5.6 4.1 12.1 4.1 19.6 0 5.5-.7 10.6-2.2 15.1-1.5 4.5-3.7 8.4-6.7 11.8-3 3.3-6.7 5.9-11 7.6-4.4 1.8-9.4 2.6-15 2.6-5.6 0-10.6-.9-15-2.7-4.4-1.8-8.1-4.4-11.1-7.6-3-3.3-5.2-7.2-6.7-11.9-1.5-4.6-2.3-9.6-2.3-15 0-5.5.8-10.5 2.4-15.1 1.6-4.6 3.9-8.5 6.9-11.7 3-3.2 6.6-5.7 10.9-7.4S248.9 322.6 254.4 322.6zM275 359.4c0-5.2-.8-9.8-2.5-13.6-1.7-3.8-4.1-6.7-7.3-8.7-3.1-2-6.7-3-10.8-3-2.9 0-5.6.5-8 1.6-2.5 1.1-4.6 2.7-6.3 4.8-1.8 2.1-3.2 4.7-4.2 8-1 3.2-1.5 6.9-1.5 10.9 0 4.1.5 7.7 1.5 11 1 3.3 2.5 6 4.3 8.2 1.9 2.2 4 3.8 6.4 4.9 2.4 1.1 5.1 1.6 8 1.6 3.7 0 7.1-.9 10.2-2.8 3.1-1.9 5.6-4.7 7.4-8.6C274 369.8 275 365 275 359.4zM363.1 372.7c0 2.3-.6 4.7-1.7 7.4-1.1 2.7-2.9 5.3-5.3 7.8-2.4 2.6-5.5 4.6-9.2 6.2-3.7 1.6-8.1 2.4-13.1 2.4-3.8 0-7.2-.4-10.3-1.1-3.1-.7-5.9-1.8-8.4-3.3-2.5-1.5-4.8-3.5-7-6-1.9-2.2-3.5-4.8-4.8-7.5-1.3-2.8-2.3-5.8-3-8.9-.7-3.2-1-6.5-1-10.1 0-5.8.8-10.9 2.5-15.5 1.7-4.6 4.1-8.5 7.2-11.7 3.1-3.2 6.8-5.7 11-7.4 4.2-1.7 8.7-2.5 13.4-2.5 5.8 0 11 1.2 15.5 3.5 4.5 2.3 8 5.2 10.4 8.6 2.4 3.4 3.6 6.6 3.6 9.6 0 1.7-.6 3.1-1.8 4.4s-2.6 1.9-4.2 1.9c-1.9 0-3.2-.4-4.2-1.3s-2-2.4-3.1-4.5c-1.9-3.5-4.1-6.2-6.7-8-2.6-1.8-5.7-2.6-9.4-2.6-6 0-10.7 2.3-14.2 6.8-3.5 4.5-5.3 11-5.3 19.3 0 5.6.8 10.2 2.3 13.9 1.6 3.7 3.8 6.5 6.6 8.3 2.9 1.8 6.2 2.7 10.1 2.7 4.2 0 7.7-1 10.6-3.1 2.9-2.1 5.1-5.1 6.5-9.1.6-1.9 1.4-3.4 2.3-4.6.9-1.2 2.4-1.8 4.4-1.8 1.7 0 3.2.6 4.4 1.8C362.4 369.5 363.1 371 363.1 372.7z"></path></svg>