<svg xmlns="http://www.w3.org/2000/svg" enable-background="new 0 0 512 512" viewBox="0 0 512 512" id="psd-file"><path fill="#f4f4f3" d="M414.2,121.5v317.6c0,7.4-6,13.4-13.4,13.4H111.2c-7.4,0-13.4-6-13.4-13.4V72.9c0-7.4,6-13.4,13.4-13.4h237.6
			L414.2,121.5z"></path><path fill="#edeceb" d="M414.2,121.5h-52.1c-7.4,0-13.4-6-13.4-13.4V59.5L414.2,121.5z"></path><rect width="316.5" height="103.3" x="97.8" y="307.9" fill="#13385f"></rect><path fill="#f4f4f3" d="M186.4 367.5h-13.3v20.3c0 2.9-.7 5.1-2.1 6.6s-3.1 2.2-5.2 2.2c-2.2 0-3.9-.7-5.3-2.2-1.3-1.5-2-3.7-2-6.5v-55.2c0-3.2.7-5.5 2.2-6.8s3.8-2.1 7-2.1h18.6c5.5 0 9.7.4 12.7 1.3 2.9.8 5.5 2.2 7.6 4.1 2.1 1.9 3.8 4.2 4.9 6.9 1.1 2.7 1.7 5.8 1.7 9.2 0 7.3-2.2 12.8-6.7 16.6S195.3 367.5 186.4 367.5zM182.9 334.7h-9.8v21.9h9.8c3.4 0 6.3-.4 8.6-1.1 2.3-.7 4-1.9 5.2-3.5 1.2-1.6 1.8-3.8 1.8-6.4 0-3.2-.9-5.7-2.8-7.7C193.7 335.7 189.4 334.7 182.9 334.7zM279.8 373.9c0 4.3-1.1 8.2-3.3 11.7-2.2 3.5-5.5 6.2-9.8 8.1s-9.4 2.9-15.3 2.9c-7.1 0-12.9-1.3-17.5-4-3.3-1.9-5.9-4.5-7.9-7.7-2-3.2-3.1-6.3-3.1-9.4 0-1.8.6-3.3 1.8-4.5 1.2-1.3 2.8-1.9 4.7-1.9 1.5 0 2.8.5 3.9 1.5 1.1 1 2 2.4 2.7 4.3.9 2.3 1.9 4.2 3 5.7 1.1 1.5 2.5 2.8 4.5 3.8 1.9 1 4.4 1.5 7.6 1.5 4.3 0 7.8-1 10.5-3s4-4.5 4-7.5c0-2.4-.7-4.3-2.2-5.8-1.4-1.5-3.3-2.6-5.6-3.4s-5.4-1.6-9.2-2.5c-5.1-1.2-9.4-2.6-12.9-4.2s-6.2-3.8-8.3-6.6c-2-2.8-3.1-6.2-3.1-10.4 0-3.9 1.1-7.4 3.2-10.5 2.1-3.1 5.3-5.4 9.3-7.1 4.1-1.6 8.9-2.5 14.4-2.5 4.4 0 8.2.5 11.4 1.6 3.2 1.1 5.9 2.5 8 4.3 2.1 1.8 3.7 3.7 4.6 5.7 1 2 1.5 3.9 1.5 5.8 0 1.7-.6 3.3-1.8 4.7-1.2 1.4-2.7 2.1-4.6 2.1-1.7 0-2.9-.4-3.8-1.2-.9-.8-1.8-2.2-2.8-4.1-1.3-2.7-2.9-4.8-4.7-6.3-1.8-1.5-4.8-2.3-8.8-2.3-3.7 0-6.8.8-9.1 2.5-2.3 1.6-3.4 3.6-3.4 5.9 0 1.4.4 2.7 1.2 3.7.8 1 1.9 1.9 3.2 2.7 1.4.7 2.8 1.3 4.2 1.8 1.4.4 3.7 1 6.9 1.9 4 .9 7.7 2 11 3.1 3.3 1.1 6.1 2.5 8.3 4.2 2.3 1.6 4.1 3.7 5.4 6.2C279.1 367.2 279.8 370.3 279.8 373.9zM301 323.8h18.9c4.9 0 9.1.5 12.6 1.4 3.5.9 6.7 2.6 9.6 5.1 7.5 6.4 11.2 16.1 11.2 29.1 0 4.3-.4 8.2-1.1 11.8-.7 3.5-1.9 6.7-3.5 9.6-1.6 2.8-3.6 5.4-6 7.6-1.9 1.7-4 3.1-6.3 4.2-2.3 1-4.7 1.8-7.3 2.2-2.6.4-5.6.6-8.9.6h-18.9c-2.6 0-4.6-.4-6-1.2-1.3-.8-2.2-1.9-2.6-3.4-.4-1.4-.6-3.3-.6-5.6v-52.5c0-3.1.7-5.4 2.1-6.8C295.7 324.5 297.9 323.8 301 323.8zM306.7 335.2v48.6h11c2.4 0 4.3-.1 5.7-.2 1.4-.1 2.8-.5 4.2-1 1.5-.5 2.7-1.3 3.8-2.2 4.8-4.1 7.3-11.2 7.3-21.2 0-7.1-1.1-12.4-3.2-15.9-2.1-3.5-4.8-5.8-7.9-6.7-3.1-1-6.9-1.4-11.3-1.4H306.7z"></path></svg>